<?xml version="1.0" encoding="UTF-8"?>
<svg id="Capa_1" xmlns="http://www.w3.org/2000/svg" version="1.1" viewBox="0 0 640 1400">
  <!-- Generator: Adobe Illustrator 29.0.0, SVG Export Plug-In . SVG Version: 2.1.0 Build 186)  -->
  <defs>
    <style>
      .st0 {
        fill: #9f201f;
      }
    </style>
  </defs>
  <path class="st0" d="M443.44,658.8c12.96,13.84,21.76,31.08,27.56,49.08.9,2.8,1.52,4.49,1.32,7.54-.52,8.29-5.54,11.07-10.92,16.18-7.66,7.27-15.5,14.46-23.89,20.97-3.49,2.71-12.15,7.91-13.67,11.76-1.91,4.81,3.14,8.91,5.64,12.38,1.83,2.53,5.14,6.82,6.44,9.4.82,1.63.2,3.55-1.85,3.29-.91-.12-2.2-1.7-2.86-2.42-3.76-4.1-10.56-14.49-14.99-16.45-6.3-2.79-15.9,1.67-22.41,3.37-14.33,3.74-28.98,5.9-43.55,8.52-4.45.8-10.08.98-13.17,4.82s-1.27,9.43-1.55,14.04c-.14,2.23-.55,6.93-1.08,8.99-.44,1.69-1.3,2.26-3.12,1.9-2-.39-1.44-3.96-1.57-5.39-.23-2.46-.58-4.95-.73-7.43-.46-7.82,1.58-12.43-7.73-14.82-6.5-1.67-13.7-2.59-20.35-4.12-11.86-2.73-23.44-6.57-35.22-9.41-3.33-.8-5.98-1.68-9.18.04-2.75,1.48-9.55,11.09-11.98,14.17-1.01,1.28-6.32,8.63-7.14,8.93-2.01.74-3.18-.54-2.57-2.57,5.65-8.14,10.94-16.55,16.43-24.78.11-.16.3-.19.47-.17v-.35c-.27-.61-6.54-4.27-7.66-5.05-1.75-1.23-3.4-2.81-5.08-4.04-13.34-9.82-23.56-16.99-32.96-31.09s-6.17-21.34,1.5-35.15c12.03-21.65,30.45-39.65,51.92-51.95,3.95-2.27,15.53-7.33,17.29-11.02,1.03-2.18.49-3.92-.21-6.11-3.14-9.86-12.21-22.21-10.88-32.79.21-1.64,2.23-2.17,3.5-1.32.41.27.91,1.25,1.16,1.72,4.85,9.08,8.64,18.92,12.28,28.5s12.34,3.9,19.26,1.99c1.23-.34,2.69-.56,3.91-.89l22.52-6.16,1-29.55c.43-3.03,4.99-3.86,5.5-.97.1.54-.07,1.14.01,1.67.74,4.75,1.15,8.89,1.44,13.67.36,6.13-1.06,12.84,6.25,15.1,4.61,1.42,19.57,2.76,24.33,2.26,5.2-.54,7.14-4.23,9.23-8.52,4.54-9.3,7.9-21.84,13.25-30.34.73-1.16,2.7-1.45,3.55-.26v.85c-2.78,8.13-4.82,16.52-7.47,24.69-1.11,3.41-4.61,10.97-4.5,13.99.08,2.11.86,3.43,2.41,4.79,6.73,4.09,14.37,6.63,21.42,10.25,13.86,7.11,28.09,16.95,38.74,28.32ZM415.34,648.75c-44.33-31.54-100.36-32.21-146.76-4.51-22.26,13.29-43.5,32.8-55.26,56.05-2.8,5.53-7.2,15.47-2.13,20.91,4.8,5.14,12.2,9.58,17.2,14.69,27.04,21.89,47,31.42,82.28,34.1,28.37,2.15,61.35,1.82,88.39-7.61,18.68-6.51,35.23-17.71,50.51-30.05,3.43-2.77,12.58-9.86,14.32-13.33.77-1.53,1.84-4.12,1-5.73-7.11-13.16-13.04-26.94-22.29-38.62-7.67-9.69-17.18-18.72-27.26-25.89Z"/>
  <path class="st0" d="M361.1,710.89c-3.16,4.46-10.42,9.95-15.51,11.96-10.14,4.01-22.27,1.17-30.35-5.88-11.57-10.08-11.65-25.69-4.29-38.33,5.26-9.04,10.83-13.41,21.39-15.08,3.68-.58,4.51.21,7.68.85,6.99,1.4,10.51,1.65,16.26,6.54,10.98,9.34,13.11,28.23,4.83,39.94Z"/>
</svg>